<svg xmlns="http://www.w3.org/2000/svg" xmlns:xlink="http://www.w3.org/1999/xlink" viewBox="0 0 1366 768"><defs><style>.cls-1{fill:url(#radial-gradient);}.cls-2{fill:url(#radial-gradient-2);}.cls-3{fill:url(#radial-gradient-3);}.cls-4{fill:url(#radial-gradient-4);}.cls-5{fill:url(#radial-gradient-5);}.cls-6{fill:url(#radial-gradient-6);}.cls-7{fill:url(#radial-gradient-7);}.cls-8{fill:url(#radial-gradient-8);}.cls-9{fill:url(#radial-gradient-9);}.cls-10{fill:url(#radial-gradient-10);}.cls-11{fill:url(#radial-gradient-11);}.cls-12{fill:url(#radial-gradient-12);}.cls-13{fill:url(#radial-gradient-13);}.cls-14{fill:url(#radial-gradient-14);}.cls-15{fill:url(#radial-gradient-15);}.cls-16{fill:url(#radial-gradient-16);}.cls-17{fill:url(#radial-gradient-17);}.cls-18{fill:url(#radial-gradient-18);}.cls-19{fill:none;stroke:#240046;}.cls-19,.cls-20,.cls-21,.cls-22,.cls-23,.cls-24,.cls-25,.cls-26,.cls-27,.cls-28,.cls-29,.cls-30,.cls-31,.cls-32,.cls-33,.cls-34,.cls-35,.cls-36,.cls-37,.cls-38,.cls-39,.cls-40,.cls-41,.cls-42,.cls-43,.cls-44{stroke-miterlimit:10;}.cls-19,.cls-21,.cls-23,.cls-25,.cls-27,.cls-29{stroke-width:5px;}.cls-20,.cls-22,.cls-24{stroke-width:0.25px;}.cls-20{fill:url(#radial-gradient-19);stroke:url(#radial-gradient-20);}.cls-21{fill:url(#radial-gradient-21);stroke:url(#radial-gradient-22);}.cls-22{fill:url(#radial-gradient-23);stroke:url(#radial-gradient-24);}.cls-23{fill:url(#radial-gradient-25);stroke:url(#radial-gradient-26);}.cls-24{fill:url(#radial-gradient-27);stroke:url(#radial-gradient-28);}.cls-25{fill:url(#radial-gradient-29);stroke:url(#radial-gradient-30);}.cls-26{fill:url(#radial-gradient-31);stroke:url(#radial-gradient-32);}.cls-27{fill:url(#radial-gradient-33);stroke:url(#radial-gradient-34);}.cls-28{fill:url(#radial-gradient-35);stroke:url(#radial-gradient-36);}.cls-29{fill:url(#radial-gradient-37);stroke:url(#radial-gradient-38);}.cls-30,.cls-31,.cls-32,.cls-33,.cls-34,.cls-35,.cls-36,.cls-37,.cls-38,.cls-39,.cls-40,.cls-41,.cls-42,.cls-43,.cls-44{stroke-width:0.75px;}.cls-30,.cls-31,.cls-32,.cls-33,.cls-34,.cls-35,.cls-38,.cls-39,.cls-40,.cls-41,.cls-42{fill-rule:evenodd;}.cls-30{fill:url(#radial-gradient-39);stroke:url(#radial-gradient-40);}.cls-31{fill:url(#radial-gradient-41);stroke:url(#radial-gradient-42);}.cls-32{fill:url(#radial-gradient-43);stroke:url(#radial-gradient-44);}.cls-33{fill:url(#radial-gradient-45);stroke:url(#radial-gradient-46);}.cls-34{fill:url(#radial-gradient-47);stroke:url(#radial-gradient-48);}.cls-35{fill:url(#radial-gradient-49);stroke:url(#radial-gradient-50);}.cls-36{fill:url(#radial-gradient-51);stroke:url(#radial-gradient-52);}.cls-37{fill:url(#radial-gradient-53);stroke:url(#radial-gradient-54);}.cls-38{fill:url(#radial-gradient-55);stroke:url(#radial-gradient-56);}.cls-39{fill:url(#radial-gradient-57);stroke:url(#radial-gradient-58);}.cls-40{fill:url(#radial-gradient-59);stroke:url(#radial-gradient-60);}.cls-41{fill:url(#radial-gradient-61);stroke:url(#radial-gradient-62);}.cls-42{fill:url(#radial-gradient-63);stroke:url(#radial-gradient-64);}.cls-43{fill:#fff;stroke:url(#radial-gradient-65);}.cls-44{fill:url(#radial-gradient-66);stroke:url(#radial-gradient-67);}</style><radialGradient id="radial-gradient" cx="477.13" cy="579.85" r="40.4" gradientUnits="userSpaceOnUse"><stop offset="0" stop-color="#fbb03b"/><stop offset="0.1" stop-color="#faa939"/><stop offset="0.24" stop-color="#f89534"/><stop offset="0.41" stop-color="#f4762b"/><stop offset="0.53" stop-color="#f15a24"/><stop offset="0.61" stop-color="#f25221"/><stop offset="0.74" stop-color="#f53d18"/><stop offset="0.9" stop-color="#fb1b0b"/><stop offset="1" stop-color="red"/></radialGradient><radialGradient id="radial-gradient-2" cx="586.25" cy="540.83" r="14.5" xlink:href="#radial-gradient"/><radialGradient id="radial-gradient-3" cx="575.6" cy="552.36" r="14.88" xlink:href="#radial-gradient"/><radialGradient id="radial-gradient-4" cx="763.77" cy="541.7" r="14.5" xlink:href="#radial-gradient"/><radialGradient id="radial-gradient-5" cx="753.12" cy="553.23" r="14.88" xlink:href="#radial-gradient"/><radialGradient id="radial-gradient-6" cx="512.43" cy="554.82" r="30.79" xlink:href="#radial-gradient"/><radialGradient id="radial-gradient-7" cx="534.76" cy="556.57" r="29.55" xlink:href="#radial-gradient"/><radialGradient id="radial-gradient-8" cx="606.75" cy="555.21" r="30.51" xlink:href="#radial-gradient"/><radialGradient id="radial-gradient-9" cx="633.45" cy="555.11" r="31.06" xlink:href="#radial-gradient"/><radialGradient id="radial-gradient-10" cx="704.84" cy="550.15" r="6.61" xlink:href="#radial-gradient"/><radialGradient id="radial-gradient-11" cx="680.75" cy="568.08" r="18.51" xlink:href="#radial-gradient"/><radialGradient id="radial-gradient-12" cx="786.55" cy="555.11" r="31.06" xlink:href="#radial-gradient"/><radialGradient id="radial-gradient-13" cx="382.6" cy="559" r="48.52" xlink:href="#radial-gradient"/><radialGradient id="radial-gradient-14" cx="404.93" cy="558.96" r="48.55" xlink:href="#radial-gradient"/><radialGradient id="radial-gradient-15" cx="826.44" cy="559.02" r="48.52" xlink:href="#radial-gradient"/><radialGradient id="radial-gradient-16" cx="848.76" cy="558.98" r="48.55" xlink:href="#radial-gradient"/><radialGradient id="radial-gradient-17" cx="719.2" cy="556.72" r="31.06" xlink:href="#radial-gradient"/><radialGradient id="radial-gradient-18" cx="615" cy="510.51" r="183.14" xlink:href="#radial-gradient"/><radialGradient id="radial-gradient-19" cx="370.49" cy="109.21" r="10.71" xlink:href="#radial-gradient"/><radialGradient id="radial-gradient-20" cx="370.45" cy="109.11" r="10.93" xlink:href="#radial-gradient"/><radialGradient id="radial-gradient-21" cx="369.55" cy="122.56" r="6.56" xlink:href="#radial-gradient"/><radialGradient id="radial-gradient-22" cx="369.55" cy="122.56" r="9.06" xlink:href="#radial-gradient"/><radialGradient id="radial-gradient-23" cx="505.38" cy="108.27" r="10.71" xlink:href="#radial-gradient"/><radialGradient id="radial-gradient-24" cx="505.35" cy="108.17" r="10.93" xlink:href="#radial-gradient"/><radialGradient id="radial-gradient-25" cx="504.44" cy="121.62" r="6.56" xlink:href="#radial-gradient"/><radialGradient id="radial-gradient-26" cx="504.44" cy="121.62" r="9.06" xlink:href="#radial-gradient"/><radialGradient id="radial-gradient-27" cx="640.27" cy="108.27" r="10.71" xlink:href="#radial-gradient"/><radialGradient id="radial-gradient-28" cx="640.24" cy="108.17" r="10.93" xlink:href="#radial-gradient"/><radialGradient id="radial-gradient-29" cx="639.34" cy="121.62" r="6.56" xlink:href="#radial-gradient"/><radialGradient id="radial-gradient-30" cx="639.34" cy="121.62" r="9.06" xlink:href="#radial-gradient"/><radialGradient id="radial-gradient-31" cx="774.23" cy="107.34" r="10.71" xlink:href="#radial-gradient"/><radialGradient id="radial-gradient-32" cx="774.1" cy="106.93" r="11.61" xlink:href="#radial-gradient"/><radialGradient id="radial-gradient-33" cx="773.29" cy="120.69" r="6.56" xlink:href="#radial-gradient"/><radialGradient id="radial-gradient-34" cx="773.29" cy="120.69" r="9.06" xlink:href="#radial-gradient"/><radialGradient id="radial-gradient-35" cx="909.23" cy="109.34" r="10.71" xlink:href="#radial-gradient"/><radialGradient id="radial-gradient-36" cx="909.1" cy="108.93" r="11.61" xlink:href="#radial-gradient"/><radialGradient id="radial-gradient-37" cx="908.29" cy="122.69" r="6.56" xlink:href="#radial-gradient"/><radialGradient id="radial-gradient-38" cx="908.29" cy="122.69" r="9.06" xlink:href="#radial-gradient"/><radialGradient id="radial-gradient-39" cx="802.42" cy="372.57" r="22.4" gradientTransform="translate(-2.21 6.61) rotate(-0.26)" xlink:href="#radial-gradient"/><radialGradient id="radial-gradient-40" cx="802.23" cy="372.99" r="22.89" gradientTransform="translate(-2.21 6.61) rotate(-0.26)" xlink:href="#radial-gradient"/><radialGradient id="radial-gradient-41" cx="784.6" cy="401.8" r="14.97" gradientTransform="translate(-2.21 6.61) rotate(-0.26)" xlink:href="#radial-gradient"/><radialGradient id="radial-gradient-42" cx="784.56" cy="401.63" r="15.74" gradientTransform="translate(-2.21 6.61) rotate(-0.26)" xlink:href="#radial-gradient"/><radialGradient id="radial-gradient-43" cx="760.25" cy="420.82" r="16.51" gradientTransform="translate(-2.21 6.61) rotate(-0.26)" xlink:href="#radial-gradient"/><radialGradient id="radial-gradient-44" cx="760.48" cy="420.95" r="17.17" gradientTransform="translate(-2.21 6.61) rotate(-0.26)" xlink:href="#radial-gradient"/><radialGradient id="radial-gradient-45" cx="735.49" cy="441.3" r="17.5" gradientTransform="translate(-2.21 6.61) rotate(-0.26)" xlink:href="#radial-gradient"/><radialGradient id="radial-gradient-46" cx="735.59" cy="441" r="18.08" gradientTransform="translate(-2.21 6.61) rotate(-0.26)" xlink:href="#radial-gradient"/><radialGradient id="radial-gradient-47" cx="720.93" cy="475.61" r="20.37" gradientTransform="translate(-2.21 6.61) rotate(-0.26)" xlink:href="#radial-gradient"/><radialGradient id="radial-gradient-48" cx="720.93" cy="476.67" r="21.77" gradientTransform="translate(-2.21 6.61) rotate(-0.26)" xlink:href="#radial-gradient"/><radialGradient id="radial-gradient-49" cx="743.01" cy="468.62" r="16.89" gradientTransform="translate(-2.21 6.61) rotate(-0.26)" xlink:href="#radial-gradient"/><radialGradient id="radial-gradient-50" cx="743.73" cy="468.7" r="17.87" gradientTransform="translate(-2.21 6.61) rotate(-0.26)" xlink:href="#radial-gradient"/><radialGradient id="radial-gradient-51" cx="725.91" cy="462.4" r="0.93" gradientTransform="translate(-2.21 6.61) rotate(-0.26)" xlink:href="#radial-gradient"/><radialGradient id="radial-gradient-52" cx="726.51" cy="462.1" r="1.89" gradientTransform="translate(-2.21 6.61) rotate(-0.26)" xlink:href="#radial-gradient"/><radialGradient id="radial-gradient-53" cx="760.8" cy="450.15" r="25.31" gradientTransform="translate(-2.21 6.61) rotate(-0.26)" xlink:href="#radial-gradient"/><radialGradient id="radial-gradient-54" cx="761.36" cy="449.95" r="27.08" gradientTransform="translate(-2.21 6.61) rotate(-0.26)" xlink:href="#radial-gradient"/><radialGradient id="radial-gradient-55" cx="780.59" cy="428.28" r="30.44" gradientTransform="translate(-2.21 6.61) rotate(-0.26)" xlink:href="#radial-gradient"/><radialGradient id="radial-gradient-56" cx="780.02" cy="428.63" r="31.68" gradientTransform="translate(-2.21 6.61) rotate(-0.26)" xlink:href="#radial-gradient"/><radialGradient id="radial-gradient-57" cx="803.12" cy="396.06" r="20.76" gradientTransform="translate(-2.21 6.61) rotate(-0.26)" xlink:href="#radial-gradient"/><radialGradient id="radial-gradient-58" cx="803.6" cy="394.75" r="22" gradientTransform="translate(-2.21 6.61) rotate(-0.26)" xlink:href="#radial-gradient"/><radialGradient id="radial-gradient-59" cx="812.8" cy="371.64" r="15.56" gradientTransform="translate(-2.21 6.61) rotate(-0.26)" xlink:href="#radial-gradient"/><radialGradient id="radial-gradient-60" cx="812.67" cy="371.07" r="16.36" gradientTransform="translate(-2.21 6.61) rotate(-0.26)" xlink:href="#radial-gradient"/><radialGradient id="radial-gradient-61" cx="812.08" cy="350.73" r="8.37" gradientTransform="translate(-2.21 6.61) rotate(-0.26)" xlink:href="#radial-gradient"/><radialGradient id="radial-gradient-62" cx="812.12" cy="351.91" r="9.4" gradientTransform="translate(-2.21 6.61) rotate(-0.26)" xlink:href="#radial-gradient"/><radialGradient id="radial-gradient-63" cx="727.34" cy="488.34" r="13.01" gradientTransform="translate(-2.21 6.61) rotate(-0.26)" xlink:href="#radial-gradient"/><radialGradient id="radial-gradient-64" cx="728.44" cy="489.8" r="14.67" gradientTransform="translate(-2.21 6.61) rotate(-0.26)" xlink:href="#radial-gradient"/><radialGradient id="radial-gradient-65" cx="765.25" cy="423.45" r="66.15" gradientTransform="translate(-2.21 6.61) rotate(-0.26)" xlink:href="#radial-gradient"/><radialGradient id="radial-gradient-66" cx="810.77" cy="341.89" r="0.99" gradientTransform="translate(-2.21 6.61) rotate(-0.26)" xlink:href="#radial-gradient"/><radialGradient id="radial-gradient-67" cx="810.65" cy="341.47" r="1.43" gradientTransform="translate(-2.21 6.61) rotate(-0.26)" xlink:href="#radial-gradient"/></defs><title>Artboard 1</title><g id="Layer_2" data-name="Layer 2"><path class="cls-1" d="M511.26,620.75l0,.65,2.75-7.24c-2,.73-6.62-1.9-8.6-2.71q-4.11-1.66-8-3.71a112.06,112.06,0,0,1-14.92-9.55c-8.78-6.5-18.05-15.08-29.27-16.78-10.26-1.55-18,6-17.65,16.14.4,10.91,9.57,17,19.7,17.7,19.46,1.44,37.9-13.63,42.46-32.14,2.19-8.91,2.09-19.51-3.43-27.26-5.82-8.17-16-8-23.56-2.33a62.46,62.46,0,0,0-5.94,5.32c-.67.65-2.52,1.6-2.91,2.25q-.4,3.6-.42,1.36a22.64,22.64,0,0,1,0-2.33c.36-5.79,2.63-12.39,8.66-14.23,5.59-1.71,12.9-.48,18.69-.48H512c5.2,0,5.24-15,0-15H477.12c-9.24,0-15.75,3.15-19.44,12A48.62,48.62,0,0,0,454.1,557c-.41,4.82-.82,11.3,1.67,15.7,5.44,9.66,14.32-3.48,19.45-6.42,6.32-3.62,16.61-1.82,16.26,7.07-.31,7.75-6.5,15.22-12.45,19.57-7.42,5.42-16.87,8.48-26.07,7.06a19.35,19.35,0,0,1-6.62-2.23c-.87-.49-1.81-1.5-2.62-1.88l-1-1.1-.23,4.53c-.32-.17,4.75-2.74,5.09-2.82a16.33,16.33,0,0,1,8.51.65c11.05,3.57,20,12.74,29.4,19.17a95.18,95.18,0,0,0,15.39,8.55c4.26,1.87,10.39,5.46,15,3.76,2.34-.86,2.67-5.3,2.76-7.23l0-.65c.1-2.18-.72-7.5-3.75-7.5s-3.66,5.45-3.75,7.5Z"/><path class="cls-2" d="M606.75,533.33h-41c-5.2,0-5.24,15,0,15h41c5.2,0,5.24-15,0-15Z"/><path class="cls-3" d="M566.66,533.33c-3.23.09-6.59-.43-9,2.24s-3,7.35-2.64,10.87c.33,3.7,1.8,7,3.1,10.44,1.21,3.21,2.21,6.63,4.14,9.5,3.79,5.63,9.89,6.36,14.84,1.84,6.1-5.56,11.66-11.83,17.44-17.72,3.3-3.37,1-17.8-3.79-13l-10.09,10.27c-2.41,2.47-5.46,7.17-8.7,8.32-4.68,1.64-6.15-3.62-7.36-6.83-.48-1.27-1.25-5.34-2.3-6.13q-3.42,6.42,1.25,5.12a19.92,19.92,0,0,0,3.09,0c5.25-.14,5.17-15.14,0-15Z"/><path class="cls-4" d="M784.27,534.2h-41c-5.2,0-5.24,15,0,15h41c5.2,0,5.24-15,0-15Z"/><path class="cls-5" d="M744.18,534.2c-3.23.09-6.59-.43-9,2.24s-3,7.35-2.64,10.88c.33,3.69,1.8,7,3.1,10.43,1.22,3.21,2.22,6.63,4.15,9.5,3.78,5.63,9.88,6.36,14.84,1.84,6.09-5.55,11.65-11.83,17.43-17.72,3.3-3.36,1-17.8-3.79-13l-10.08,10.27c-2.42,2.47-5.47,7.18-8.71,8.32-4.68,1.65-6.15-3.61-7.36-6.83-.48-1.27-1.24-5.33-2.29-6.13q-3.44,6.44,1.24,5.12a19.92,19.92,0,0,0,3.09,0c5.25-.14,5.18-15.14,0-15Z"/><path class="cls-6" d="M508.68,511.29v87.07c0,2.19.65,7.5,3.75,7.5s3.75-5.45,3.75-7.5V511.29c0-2.19-.64-7.5-3.75-7.5s-3.75,5.45-3.75,7.5Z"/><path class="cls-7" d="M531,514.78v83.58h7.5v-3.31c0-2.19-.65-7.5-3.75-7.5S531,593,531,595.05v3.31c0,2.19.64,7.5,3.75,7.5s3.75-5.45,3.75-7.5V514.78c0-2.18-.65-7.5-3.75-7.5s-3.75,5.46-3.75,7.5Z"/><path class="cls-8" d="M603,512.06v86.3c0,2.19.64,7.5,3.75,7.5s3.75-5.45,3.75-7.5V595.8c0-2.19-.64-7.5-3.75-7.5s-3.75,5.45-3.75,7.5v2.56c0,2.19.64,7.5,3.75,7.5s3.75-5.45,3.75-7.5v-86.3c0-2.18-.64-7.5-3.75-7.5S603,510,603,512.06Z"/><path class="cls-9" d="M629.7,511.19V599c0,2.19.65,7.5,3.75,7.5s3.75-5.45,3.75-7.5V511.19c0-2.19-.64-7.5-3.75-7.5s-3.75,5.45-3.75,7.5Z"/><path class="cls-10" d="M695.5,557.65h18.68c5.2,0,5.24-15,0-15H695.5c-5.2,0-5.24,15,0,15Z"/><path class="cls-11" d="M658.5,557.22a183.52,183.52,0,0,0,14.73,24.58c4.25,6,11.13,12.83,19.24,9.65,7.5-2.93,10.38-14.59,11.28-21.67,1.13-8.86-.8-18.55-7.4-24.92-4.9-4.73-7.22,9.63-3.79,12.95,4.21,4.06,4.64,7.67,2.63,13.12-1,2.74-2.08,5.37-5.18,6.14-2.56.63-5.6-.52-7.64-2-4-2.94-6.82-8.15-9.44-12.23a170.54,170.54,0,0,1-9.12-16.2c-1.4-2.82-3.84-2.53-5.31,0-1.67,2.9-1.46,7.66,0,10.6Z"/><path class="cls-12" d="M782.8,511.19V599c0,2.19.64,7.5,3.75,7.5s3.75-5.45,3.75-7.5v-2.59c0-2.18-.65-7.5-3.75-7.5s-3.75,5.46-3.75,7.5V599c0,2.19.64,7.5,3.75,7.5s3.75-5.45,3.75-7.5V511.19c0-2.19-.65-7.5-3.75-7.5s-3.75,5.45-3.75,7.5Z"/><path class="cls-13" d="M378.85,490.39V627.62c0,2.18.64,7.5,3.75,7.5s3.75-5.46,3.75-7.5V490.39c0-2.18-.64-7.5-3.75-7.5s-3.75,5.46-3.75,7.5Z"/><path class="cls-14" d="M401.18,490.31V627.62h7.5v-5.45c0-2.18-.65-7.5-3.75-7.5s-3.75,5.45-3.75,7.5v5.45c0,2.18.64,7.5,3.75,7.5s3.75-5.46,3.75-7.5V490.31c0-2.19-.65-7.5-3.75-7.5s-3.75,5.45-3.75,7.5Z"/><path class="cls-15" d="M822.69,490.41V627.63c0,2.19.64,7.5,3.75,7.5s3.75-5.45,3.75-7.5V490.41c0-2.19-.65-7.5-3.75-7.5s-3.75,5.45-3.75,7.5Z"/><path class="cls-16" d="M845,490.32V627.63c0,2.19.65,7.5,3.75,7.5s3.75-5.45,3.75-7.5v-5.45c0-2.18-.64-7.5-3.75-7.5s-3.75,5.46-3.75,7.5v5.45h7.5V490.32c0-2.18-.64-7.5-3.75-7.5s-3.75,5.46-3.75,7.5Z"/><path class="cls-17" d="M715.45,512.79v87.85c0,2.19.64,7.5,3.75,7.5s3.75-5.45,3.75-7.5V512.79c0-2.19-.65-7.5-3.75-7.5s-3.75,5.45-3.75,7.5Z"/><path class="cls-18" d="M356,518H874c5.2,0,5.24-15,0-15H356c-5.2,0-5.24,15,0,15Z"/><polyline class="cls-19" points="881.96 157.22 948.47 226.54 815.38 226.54 274 226.54 343.32 157.22"/><path class="cls-19" d="M343.32,157.22c5-1.56,19.71-6.88,28.1-21.55a43.3,43.3,0,0,0,4.69-12.17"/><path class="cls-20" d="M378.45,122.09,377,96.33l-14.52,21.08Z"/><circle class="cls-21" cx="369.55" cy="122.56" r="6.56"/><path class="cls-19" d="M478.21,156.28c5-1.56,19.71-6.88,28.11-21.54A43.72,43.72,0,0,0,511,122.56"/><path class="cls-22" d="M513.34,121.15l-1.4-25.76-14.52,21.08Z"/><circle class="cls-23" cx="504.44" cy="121.62" r="6.56"/><path class="cls-19" d="M487.58,46.68c3.16,1.55,19.09,9.76,22.48,26.23a34.11,34.11,0,0,1,0,13.12c-1.52,7.87-5.12,11.43-16.86,28.1-5.43,7.72-8.15,11.58-9.37,14.05a56.63,56.63,0,0,0-5.4,27.65c-6.34-5.8-18.11-17.72-23.64-32.33-1.67-4.43-2.41-8.15-1.87-12.18.85-6.29,4.4-10.15,9.37-15.93,11-12.75,16.44-19.12,19.67-25.29C484.56,65.14,487.37,57.57,487.58,46.68Z"/><path class="cls-19" d="M613.11,156.28c5-1.56,19.71-6.88,28.1-21.54a43.41,43.41,0,0,0,4.68-12.18"/><path class="cls-24" d="M648.24,121.15l-1.41-25.76-14.52,21.08Z"/><circle class="cls-25" cx="639.34" cy="121.62" r="6.56"/><path class="cls-19" d="M622.47,46.68c3.17,1.55,19.09,9.76,22.49,26.23A34.54,34.54,0,0,1,645,86c-1.53,7.87-5.13,11.43-16.86,28.1-5.44,7.72-8.16,11.58-9.37,14.05a56.77,56.77,0,0,0-5.41,27.65c-6.33-5.8-18.1-17.72-23.63-32.33-1.68-4.43-2.42-8.15-1.88-12.18.85-6.29,4.41-10.15,9.37-15.93,11-12.75,16.45-19.12,19.67-25.29C619.45,65.14,622.26,57.57,622.47,46.68Z"/><path class="cls-19" d="M747.06,155.35c5-1.57,19.71-6.88,28.11-21.55a43.6,43.6,0,0,0,4.68-12.18"/><path class="cls-26" d="M782.19,120.22l-1.4-25.76-14.52,21.07Z"/><circle class="cls-27" cx="773.29" cy="120.69" r="6.56"/><path class="cls-19" d="M756.43,45.74c3.16,1.56,19.09,9.76,22.48,26.23a34.12,34.12,0,0,1,0,13.12c-1.52,7.87-5.12,11.43-16.86,28.1-5.43,7.72-8.15,11.58-9.37,14a56.65,56.65,0,0,0-5.4,27.65c-6.34-5.8-18.11-17.72-23.64-32.33-1.67-4.43-2.41-8.15-1.87-12.18.85-6.28,4.4-10.15,9.37-15.92,11-12.76,16.44-19.13,19.67-25.3C753.41,64.2,756.22,56.63,756.43,45.74Z"/><path class="cls-19" d="M882,158.16c5-1.57,19.71-6.88,28.1-21.55a43.29,43.29,0,0,0,4.68-12.18"/><path class="cls-19" d="M891.32,48.55c3.17,1.56,19.09,9.76,22.49,26.23a34.56,34.56,0,0,1,0,13.12c-1.53,7.87-5.13,11.43-16.86,28.1-5.44,7.72-8.16,11.58-9.37,14.05a56.79,56.79,0,0,0-5.41,27.65c-6.33-5.8-18.1-17.72-23.63-32.33-1.68-4.43-2.42-8.15-1.88-12.18.85-6.28,4.41-10.15,9.37-15.92C877,84.52,882.48,78.14,885.7,72,888.3,67,891.11,59.44,891.32,48.55Z"/><polyline class="cls-19" points="343.32 157.22 410.77 226.54 477.28 157.22 545.66 226.54 613.11 157.22 680.55 226.54 748 157.22 815.45 226.54 881.96 157.22"/><polyline class="cls-19" points="410.77 226.54 477.28 293.05 545.66 226.54 612.17 293.05 680.55 226.54 748 293.05 815.45 226.54 881.96 293.05 343.32 293.05 410.77 226.54"/><polygon class="cls-19" points="814.51 361.43 748 293.05 680.55 361.43 612.17 293.05 545.66 361.43 477.28 293.05 410.77 361.43 814.51 361.43"/><polygon class="cls-19" points="478.21 427.94 545.66 361.43 612.17 427.94 680.55 361.43 747.06 427.94 478.21 427.94"/><polygon class="cls-19" points="544.72 495.39 612.17 427.94 680.55 495.39 544.72 495.39"/><path class="cls-19" d="M352.69,47.62c3.16,1.55,19.09,9.76,22.48,26.23a34.28,34.28,0,0,1,0,13.11c-1.52,7.88-5.13,11.44-16.86,28.1-5.44,7.72-8.15,11.58-9.37,14.06a56.63,56.63,0,0,0-5.4,27.65c-6.34-5.81-18.11-17.72-23.64-32.34-1.67-4.43-2.42-8.15-1.87-12.18.85-6.28,4.4-10.15,9.37-15.92,11-12.75,16.44-19.13,19.67-25.29A51.64,51.64,0,0,0,352.69,47.62Z"/><path class="cls-28" d="M917.19,122.22l-1.4-25.76-14.52,21.07Z"/><circle class="cls-29" cx="908.29" cy="122.69" r="6.56"/><path class="cls-30" d="M791.93,405.57l4.78-3.22,9.35-13.54a76.17,76.17,0,0,0,5.91-29,45.85,45.85,0,0,0-2.15-14.39,50.83,50.83,0,0,1,.12,11.91,51.79,51.79,0,0,1-9.8,25.31c-.93,4.11-2,8.31-2.94,11.22-2.57,7.83-4.22,9-4.22,9s.17-.5.44-1.37Z"/><path class="cls-31" d="M780.3,400.47l-5.24,3c.69,3,1.35,7.13.68,10.11-.84,3.8-2.32,5.46-3.06,6.09-.33,1.44-.57,2.45-.57,2.45l11.16-6.8,8-8A43.22,43.22,0,0,0,794,401.6a5.28,5.28,0,0,1-1,1.3,77.4,77.4,0,0,0,3.36-15.44A65.3,65.3,0,0,1,780.3,400.47Z"/><path class="cls-32" d="M773,421.46a31.78,31.78,0,0,0,.91-3.17,5.17,5.17,0,0,1-1.68,1.75s2.53-8.1,0-14.87c-8.38,4.94-14.94,8.77-22.77,14.62-2.1,5.58-.9,8-1.49,10.67-.93,4.26-1.27,7.23-1.73,9.12l0,0c-.09,1.93-.15,3.1-.15,3.1Z"/><path class="cls-33" d="M733.37,455.92l9.36-11.41,2.3-1.61s.61.7,1-3.13c-.33-.88-.59-5.95-.6-9.18,0-1.86-.5-5,.43-8.41-8,6.26-16,14.23-20.92,22.06a21.12,21.12,0,0,1,1.29,8.46c-.45,5.45-1.37,10.9-1.37,10.9a19.13,19.13,0,0,0-.16-3.53c.07,2.93.15,5.63.23,6.55C725.08,468.93,733.37,455.92,733.37,455.92Z"/><path class="cls-34" d="M724.73,470a40.94,40.94,0,0,0,.1-6.48.45.45,0,0,0,0,.08s0-.07,0-.18c0-.81-.05-1.66-.08-2.51a28.64,28.64,0,0,0-3.15-10.53c-8.38,19.67-3.09,57.06-3.09,57.06v-.07c.35-7.11.85-23.73,1.3-26C720.33,478.72,724.2,471.6,724.73,470Z"/><path class="cls-35" d="M735.92,473.63c11.73-1.82,14.71-7.22,28.92-10-2.08-.37-14.51-1.16-16.88-1.25-4.87-.19-13.63.32-15.45.43-2.91.41-5,.76-5,.76l-6.49,17.79,11.14-2.77a11.82,11.82,0,0,1,4.55-2.84,61.9,61.9,0,0,0-7.13.6l-4,1S730.13,473,735.92,473.63Z"/><path class="cls-36" d="M724.89,466.62a12.29,12.29,0,0,0,1.85-1.88C724.77,465.77,724.89,466.62,724.89,466.62Z"/><path class="cls-37" d="M782.76,445.81c-5.45.74-17.54-2.76-26.06-1.54-1.54.22-2.91.48-4.14.76-6.53,1.87-15.33,5.3-19.19,10.89a102.37,102.37,0,0,1-6.63,8.82,24.22,24.22,0,0,1,6.69-2l-1.28.08a60.78,60.78,0,0,1,20.6-1.75,20.31,20.31,0,0,0,6.66-.45c12-5.47,24-10.08,35.15-18.86C791.68,443.12,786.49,445.3,782.76,445.81Z"/><path class="cls-38" d="M797.39,419.33c-4.82-.14-10.15-.77-13.06-1.16a15,15,0,0,1-4.47-.54c-2.31-1.05-28.32,20.91-28.32,20.91l-10.25,10.88s1.93-1.08,4.72-2.38a41.82,41.82,0,0,1,19.16-5.42c11.25-.49,30.18-3.19,40.2-9.65a37.15,37.15,0,0,0,6.84-10.34c2.34-4.75,6.87-7.82,7.18-8.44C815.37,415.1,807.94,419.63,797.39,419.33Z"/><path class="cls-39" d="M813.77,391c-5.91,4.06-9.93,3.84-9.93,3.84l.51-.3a6.3,6.3,0,0,1-2.17.54l-8.83,10.34L785.92,412s-6.73,4.29-5.31,5.53a6.57,6.57,0,0,0,2.73.55c4.22-.13,14.63-.66,22-2.91,5-1.52,9.26-2.53,11.29-5.3,10.41-14.43,6-22.23,8.38-30C823.29,382.89,817.53,388.37,813.77,391Z"/><path class="cls-40" d="M817.28,382.42c1.69-3,3.17-6,4.31-8.5a78.63,78.63,0,0,0-5.76-19.35,15.48,15.48,0,0,1-1,4.89,60.28,60.28,0,0,1-2.81,6.41s0-.26.13-.71c-.64,2.68-1.06,5.5-1.86,9.95-1.21,6.75-7.19,19.39-7.19,19.39a15.4,15.4,0,0,0,1.9-.39C807.59,392.49,814.12,388,817.28,382.42Z"/><path class="cls-41" d="M810.16,349c1.16,7.3,1.65,16.15,1.65,16.15l1.07-4.47c.44-2.84.94-6.44,1.2-9.8a61.45,61.45,0,0,0-5.27-8.8S809.91,343.56,810.16,349Z"/><path class="cls-42" d="M718,502.84c.3,2.88.55,4.6.55,4.6,1-11.37,10.52-29.5,18.23-31.67a61.9,61.9,0,0,0-7.13.6l-3.61.86a14,14,0,0,0-5.83,5.75C718.45,486.23,718,496.24,718,502.84Z"/><path class="cls-43" d="M805.11,387.92c-8.1,16-19.19,22.62-59.79,52.85-25,18.59-27.72,50.1-27.72,50.1l1,15.8.06.3s-1-26.92,12.81-46.48c16.94-24,57.89-38.58,74.05-68.31,8.62-15.85,7.71-33.19,5-46C812.63,358.05,811.71,374.85,805.11,387.92Z"/><path class="cls-44" d="M809.81,343.42c.22.88.43,1.79.63,2.72-.18-.93-.37-1.82-.58-2.68Z"/></g></svg>